# xmcd
#
# Track frame offsets: 
#        150
#        21375
#        37875
#        63000
#        78825
#        96300
#        114675
#        132525
#        149025
#        168750
#        188475
#        204900
#
# Disc length: 3005 seconds
#
# Revision: 0
# Processed by: cddbd v1.5.1PL0 Copyright (c) Steve Scherf et al.
# Submitted via: ExactAudioCopy v0.95a3
#
DISCID=9e0bbb0c
DTITLE=Вика Цыганова - Первые Песни (Неизданное)
DYEAR=1994
DGENRE=Pop
TTITLE0=Играй, Тальянка
TTITLE1=Беня Крик
TTITLE2=На Заречном Кладбище
TTITLE3=Клубничка
TTITLE4=Тётя Роза
TTITLE5=Дед Егор
TTITLE6=Сонная, Пьяная
TTITLE7=Всё Не Так
TTITLE8=Амур-Река
TTITLE9=Жабы
TTITLE10=Анапа
TTITLE11=Любовь-Цыганка
EXTD=
EXTT0=
EXTT1=
EXTT2=
EXTT3=
EXTT4=
EXTT5=
EXTT6=
EXTT7=
EXTT8=
EXTT9=
EXTT10=
EXTT11=
PLAYORDER=
